HIERARCHY
ROOT Hips
{
 OFFSET 0.000000 0.000000 0.000000
 CHANNELS 6 Xposition Yposition Zposition Yrotation Xrotation Zrotation
 JOINT Chest
 {
  OFFSET 0.000000 9.303000 0.001900
  CHANNELS 3 Yrotation Xrotation Zrotation
  JOINT Chest2
  {
   OFFSET 0.000000 9.301100 -0.003900
   CHANNELS 3 Yrotation Xrotation Zrotation
   JOINT Chest3
   {
    OFFSET 0.000000 9.262800 0.000000
    CHANNELS 3 Yrotation Xrotation Zrotation
    JOINT Chest4
    {
     OFFSET 0.000000 9.253300 0.000000
     CHANNELS 3 Yrotation Xrotation Zrotation
     JOINT Neck
     {
      OFFSET 0.000000 14.010300 0.000000
      CHANNELS 3 Yrotation Xrotation Zrotation
      JOINT Head
      {
       OFFSET 0.000000 8.657600 -0.008300
       CHANNELS 3 Yrotation Xrotation Zrotation
       End Site
       {
        OFFSET 0.000000 16.540200 -0.004400
       }
      }
     }
     JOINT RightCollar
     {
      OFFSET -2.834100 9.267700 0.000000
      CHANNELS 3 Yrotation Xrotation Zrotation
      JOINT RightShoulder
      {
       OFFSET -13.135200 0.000000 0.000000
       CHANNELS 3 Yrotation Xrotation Zrotation
       JOINT RightElbow
       {
        OFFSET 0.000000 -28.893500 0.000000
        CHANNELS 3 Yrotation Xrotation Zrotation
        JOINT RightWrist
        {
         OFFSET 0.000000 -23.344000 0.000000
         CHANNELS 3 Yrotation Xrotation Zrotation
         End Site
         {
          OFFSET 0.000000 -17.223000 0.000000
         }
        }
       }
      }
     }
     JOINT LeftCollar
     {
      OFFSET 2.834100 9.267700 0.000000
      CHANNELS 3 Yrotation Xrotation Zrotation
      JOINT LeftShoulder
      {
       OFFSET 13.135200 0.000000 0.000000
       CHANNELS 3 Yrotation Xrotation Zrotation
       JOINT LeftElbow
       {
        OFFSET 0.000000 -28.893500 0.000000
        CHANNELS 3 Yrotation Xrotation Zrotation
        JOINT LeftWrist
        {
         OFFSET 0.000000 -23.344000 0.000000
         CHANNELS 3 Yrotation Xrotation Zrotation
         End Site
         {
          OFFSET 0.000000 -17.223000 0.000000
         }
        }
       }
      }
     }
    }
   }
  }
 }
 JOINT RightHip
 {
  OFFSET -7.547200 -0.009500 -0.001000
  CHANNELS 3 Yrotation Xrotation Zrotation
  JOINT RightKnee
  {
   OFFSET 0.000000 -39.762800 0.000900
   CHANNELS 3 Yrotation Xrotation Zrotation
   JOINT RightAnkle
   {
    OFFSET 0.000000 -38.588200 0.001600
    CHANNELS 3 Yrotation Xrotation Zrotation
    JOINT RightToe
    {
     OFFSET 0.000000 -4.693300 10.419700
     CHANNELS 3 Yrotation Xrotation Zrotation
     End Site
     {
      OFFSET 0.000000 -1.379900 5.669300
     }
    }
   }
  }
 }
 JOINT LeftHip
 {
  OFFSET 7.547200 -0.009500 -0.001000
  CHANNELS 3 Yrotation Xrotation Zrotation
  JOINT LeftKnee
  {
   OFFSET 0.000000 -39.762800 0.000900
   CHANNELS 3 Yrotation Xrotation Zrotation
   JOINT LeftAnkle
   {
    OFFSET 0.000000 -38.588200 0.001600
    CHANNELS 3 Yrotation Xrotation Zrotation
    JOINT LeftToe
    {
     OFFSET 0.000000 -4.693300 10.419700
     CHANNELS 3 Yrotation Xrotation Zrotation
     End Site
     {
      OFFSET 0.000000 -1.379900 5.669300
     }
    }
   }
  }
 }
}
MOTION
Frames: 5
Frame Time: 0.008333
0.000000 82.880600 0.000000 0.000000 -5.767877 0.000000 0.000000 11.653817 0.000000 0.000000 -5.885947 0.000000 0.000000 -0.000000 0.000000 0.000000 -0.000000 0.000000 0.000000 12.528835 0.000000 0.000000 0.711642 0.000000 0.000000 -0.000000 0.000000 0.000000 0.000000 -90.000000 0.000000 -2.309062 0.000000 0.000000 2.309062 0.000000 0.000000 -0.000000 0.000000 0.000000 -0.000000 90.000000 0.000000 -2.309062 0.000000 0.000000 2.309062 0.000000 0.000000 8.520406 0.000000 0.000000 1.905762 0.000000 -0.000000 -4.658285 0.000000 0.000000 -0.000000 0.000000 0.000000 8.520406 0.000000 0.000000 1.905762 0.000000 -0.000000 -4.658285 0.000000 0.000000 -0.000000 0.000000
27.422952 45.911356 -10.435661 164.086057 -12.930314 -0.089212 3.275137 8.560843 0.794749 0.176526 0.470576 0.031957 0.306496 0.816885 0.056357 3.057139 7.988853 0.745626 -1.788950 22.604379 -0.689865 -1.765009 -1.506601 -0.327673 2.007822 4.073167 -5.384718 0.596106 -9.262567 -1.924878 -65.183884 -79.935401 77.047044 -9.828276 -6.332688 -27.289144 -10.372971 1.915323 -4.035690 15.693403 -11.564422 8.428211 49.226859 -63.119464 -74.419591 7.176928 -3.158273 16.016623 -17.541716 -74.228137 15.061640 -117.437526 82.675257 -118.415260 -11.115288 -10.510753 -0.920275 0.002944 -0.015358 -0.005273 -0.060196 -74.306312 20.155587 120.518561 77.522417 118.006053 -11.769679 -13.090273 3.666266 0.003638 0.015595 -0.001573
27.423235 45.910721 -10.434715 164.088305 -12.933270 -0.086053 3.273098 8.559277 0.799546 0.176264 0.470618 0.031954 0.306801 0.818007 0.055896 3.051446 7.990892 0.741311 -1.788021 22.606022 -0.689421 -1.763319 -1.508503 -0.326845 1.999309 4.076113 -5.389574 0.617405 -9.253645 -1.925024 -64.782811 -79.907165 76.622161 -9.814673 -6.375496 -27.276274 -10.365525 1.922145 -4.034341 15.683076 -11.557423 8.425532 49.175307 -63.149627 -74.358012 7.172186 -3.159706 16.013115 -17.540363 -74.227956 15.057264 -117.445753 82.675038 -118.422670 -11.144984 -10.508094 -0.921591 0.000224 -0.016205 -0.001571 -0.063138 -74.305259 20.151786 120.511336 77.520276 118.000642 -11.765980 -13.085979 3.660594 0.002786 0.014165 -0.001183
27.422939 45.909930 -10.433694 164.090360 -12.935644 -0.078704 3.269154 8.560121 0.793491 0.175728 0.470284 0.033065 0.308568 0.820044 0.053934 3.051753 7.987330 0.748896 -1.788950 22.604739 -0.688934 -1.766366 -1.505604 -0.332155 1.978981 4.083360 -5.391040 0.644974 -9.247041 -1.933455 -64.348513 -79.872895 76.167313 -9.810183 -6.358453 -27.295856 -10.364356 1.929601 -4.040019 15.672438 -11.539353 8.428941 49.150591 -63.190363 -74.319914 7.189836 -3.169155 16.000583 -17.525437 -74.229192 15.040467 -117.442570 82.673768 -118.418231 -11.199827 -10.508098 -0.919715 -0.005290 -0.015821 -0.000371 -0.044120 -74.303751 20.128773 120.531817 77.524792 118.015521 -11.765471 -13.084077 3.665275 -0.000375 0.013387 -0.000872
27.424390 45.909024 -10.432078 164.086479 -12.937764 -0.081063 3.272763 8.561267 0.797234 0.174115 0.469130 0.035343 0.308284 0.818779 0.053271 3.053052 7.988315 0.749216 -1.790065 22.600248 -0.686646 -1.766384 -1.501078 -0.334232 1.971582 4.089248 -5.390289 0.670711 -9.225741 -1.935107 -63.944045 -79.842511 75.734948 -9.811754 -6.346361 -27.308186 -10.362791 1.933432 -4.042099 15.662310 -11.511325 8.440080 49.126139 -63.250186 -74.277884 7.155469 -3.156441 15.987033 -17.533774 -74.226920 15.049873 -117.453733 82.676657 -118.430484 -11.152867 -10.505860 -0.928194 -0.000659 -0.015313 0.000883 -0.057971 -74.303259 20.145401 120.534808 77.523593 118.015992 -11.756735 -13.085404 3.665679 0.000683 0.015031 -0.001081
